#!OML:ASF E:\Steps\Project 1\Capture day 1\Session 2\Subject.ASF
:FULLY-SPECIFIED
:DEGREES
283
root 13.4491 15.9901 20.62 -157.651 -17.2493 162.097
lowerback -20.401 0.226069 -3.658
upperback 2.52813 1.55119 -3.31207
thorax 14.4332 0.526788 -1.19307
lowerneck -1.45491 4.16418 0.753157
upperneck 19.4116 4.9978 -2.12248
head 6.18847 1.92283 -0.554985
rclavicle -2.78299e-015 4.77083e-014
rhumerus -28.6723 -9.23497 -77.04
rradius 36.9055
rwrist -2.72444
rhand -10.4647 -52.9563
rfingers 7.12502
rthumb 15.5361 -82.3522
lclavicle -2.78299e-015 4.77083e-014
lhumerus -36.5805 8.37248 74.4499
lradius 24.1517
lwrist -5.94188
lhand -21.5036 -16.2565
lfingers 7.12502
lthumb 4.88806 13.6672
rfemur -13.1307 2.5174 -3.60573
rtibia 26.8743
rfoot -35.676 -20.0597
rtoes -20.9165
lfemur -54.6761 -2.31192 5.11627
ltibia 28.9427
lfoot 11.21 4.1593
ltoes -27.4631
284
root 13.3531 15.9675 20.5831 -157.288 -17.2883 162.017
lowerback -20.5715 0.169721 -3.84542
upperback 2.53754 1.52963 -3.27978
thorax 14.5403 0.49795 -1.05763
lowerneck -1.57024 4.01544 0.589188
upperneck 19.3914 4.78265 -1.93977
head 6.18953 1.82297 -0.480378
rclavicle 4.25399e-014 -1.59028e-014
rhumerus -28.5031 -8.95148 -77.0554
rradius 37.1201
rwrist -3.28447
rhand -9.69289 -55.2309
rfingers 7.12502
rthumb 16.2794 -84.5675
lclavicle 4.25399e-014 -1.59028e-014
lhumerus -36.2699 8.09933 74.5875
lradius 24.0291
lwrist -5.71671
lhand -21.5373 -15.8538
lfingers 7.12502
lthumb 4.85558 14.0705
rfemur -13.0955 2.44751 -3.97946
rtibia 26.8005
rfoot -35.6178 -20.5884
rtoes -22.5157
lfemur -55.0946 -2.22683 4.6256
ltibia 29.1531
lfoot 11.4829 3.56859
ltoes -27.3043
285
root 13.2511 15.9436 20.5541 -157.089 -17.5362 162.239
lowerback -20.3521 0.183915 -3.68752
upperback 2.42269 1.47829 -3.15529
thorax 14.2729 0.487414 -1.01757
lowerneck -1.86865 3.63955 0.521513
upperneck 19.8872 4.21649 -1.7831
head 6.38567 1.53262 -0.447719
rclavicle 3.29983e-014 -6.36111e-015
rhumerus -28.5899 -8.80373 -76.8965
rradius 37.3402
rwrist -3.38906
rhand -7.59694 -58.319
rfingers 7.12502
rthumb 18.2966 -87.4785
lclavicle 3.29983e-014 -6.36111e-015
lhumerus -36.1221 7.67069 74.7953
lradius 23.8991
lwrist -5.33281
lhand -21.4607 -14.6491
lfingers 7.12502
lthumb 4.92957 15.2735
rfemur -12.8915 2.273 -3.96835
rtibia 26.6408
rfoot -35.5143 -20.9634
rtoes -23.4233
lfemur -55.6169 -2.15499 4.40173
ltibia 29.5402
lfoot 11.9298 2.91945
ltoes -26.4941
286
root 13.1562 15.92 20.5218 -156.851 -17.6199 162.343
lowerback -20.209 0.22486 -3.71725
upperback 2.34073 1.52421 -3.13844
thorax 14.0894 0.5072 -0.964486
lowerneck -1.66926 3.5007 0.582278
upperneck 19.6006 4.03743 -1.81915
head 6.25939 1.45901 -0.483511
rclavicle -9.14409e-015 -4.29375e-014
rhumerus -28.7302 -8.92752 -76.8082
rradius 37.6318
rwrist -3.21243
rhand -10.9927 -53.3063
rfingers 7.12502
rthumb 15.0275 -82.741
lclavicle -9.14409e-015 -4.29375e-014
lhumerus -36.1647 7.19317 74.9022
lradius 24.2697
lwrist -4.93311
lhand -21.3186 -14.3737
lfingers 7.12502
lthumb 5.06672 15.5457
rfemur -12.8058 2.36793 -4.12522
rtibia 26.5252
rfoot -35.5864 -21.1979
rtoes -23.208
lfemur -56.0847 -2.11675 4.13935
ltibia 29.9473
lfoot 12.5234 2.3595
ltoes -25.7334
287
root 13.0665 15.8908 20.483 -156.95 -17.8019 162.948
lowerback -19.994 0.299993 -3.34377
upperback 2.37731 1.51656 -2.99672
thorax 14.0089 0.533359 -1.01723
lowerneck -1.58067 3.53494 0.73469
upperneck 19.358 4.11348 -1.95682
head 6.17433 1.50876 -0.549209
rclavicle 3.33958e-014 -1.59028e-014
rhumerus -28.5783 -8.94212 -76.8667
rradius 37.6596
rwrist -3.4044
rhand -10.7093 -53.9989
rfingers 7.12502
rthumb 15.3005 -83.4129
lclavicle 3.33958e-014 -1.59028e-014
lhumerus -36.2054 6.81553 74.922
lradius 24.8163
lwrist -4.65568
lhand -21.1831 -14.7864
lfingers 7.12502
lthumb 5.1976 15.1299
rfemur -12.5817 2.87106 -3.65259
rtibia 26.3606
rfoot -35.8216 -21.5023
rtoes -22.6484
lfemur -56.3455 -1.87247 4.35487
ltibia 30.5004
lfoot 13.1556 1.70267
ltoes -25.0325
288
root 12.9681 15.8672 20.4481 -156.752 -17.9103 163.125
lowerback -19.9066 0.256174 -3.32227
upperback 2.36454 1.44221 -2.93442
thorax 13.9408 0.500122 -0.981448
lowerneck -0.943245 3.52752 1.02445
upperneck 18.41 4.19042 -2.3943
head 5.78214 1.57248 -0.741556
rclavicle 9.54166e-015 -1.74931e-014
rhumerus -28.1999 -8.73707 -76.9141
rradius 37.4263
rwrist -3.60947
rhand -10.5105 -54.87
rfingers 7.12502
rthumb 15.492 -84.2693
lclavicle 9.54166e-015 -1.74931e-014
lhumerus -36.1841 6.62922 74.9138
lradius 25.1747
lwrist -4.58743
lhand -21.31 -15.7821
lfingers 7.12502
lthumb 5.07499 14.1371
rfemur -12.3924 2.94126 -3.77276
rtibia 26.0536
rfoot -35.8676 -21.7698
rtoes -23.0025
lfemur -56.7579 -1.96017 4.16004
ltibia 31.032
lfoot 13.7344 1.27262
ltoes -24.437
289
root 12.8724 15.8411 20.4082 -156.777 -17.9753 163.424
lowerback -19.6844 0.18709 -3.34012
upperback 2.46092 1.33614 -2.76509
thorax 13.9175 0.446553 -0.812906
lowerneck -0.853745 3.29199 0.844471
upperneck 18.1372 3.87462 -2.30024
head 5.6695 1.42327 -0.700501
rclavicle 4.65156e-014 -4.13472e-014
rhumerus -27.8085 -8.4444 -76.9144
rradius 37.3051
rwrist -3.95046
rhand -9.45042 -56.0066
rfingers 7.12502
rthumb 16.5128 -85.324
lclavicle 4.65156e-014 -4.13472e-014
lhumerus -36.0574 6.45494 75.0318
lradius 25.5193
lwrist -4.3562
lhand -21.5654 -16.6899
lfingers 7.12502
lthumb 4.82841 13.2351
rfemur -12.064 3.42973 -3.69465
rtibia 25.8005
rfoot -35.9308 -22.1822
rtoes -23.2921
lfemur -56.9017 -1.98728 4.08613
ltibia 31.5079
lfoot 14.5296 0.999569
ltoes -23.6648
